<?xml version="1.0" encoding="UTF-8" standalone="no"?><!DOCTYPE svg PUBLIC "-//W3C//DTD SVG 1.1//EN" "http://www.w3.org/Graphics/SVG/1.1/DTD/svg11.dtd"><svg width="100%" height="100%" viewBox="0 0 33 33" version="1.1" xmlns="http://www.w3.org/2000/svg" xmlns:xlink="http://www.w3.org/1999/xlink" xml:space="preserve" xmlns:serif="http://www.serif.com/" style="fill-rule:evenodd;clip-rule:evenodd;stroke-linecap:round;stroke-linejoin:round;stroke-miterlimit:1.5;"><rect id="Artboard1" x="0" y="0" width="32.008" height="32.008" style="fill:none;"/><circle cx="1.757" cy="17.71" r="0.503" style="stroke:#000;stroke-width:1px;"/><path d="M1.757,17.71c-0,0 2.87,4.79 6.243,4.79" style="fill:none;stroke:#000;stroke-width:1px;"/><path d="M8,10c-0,-0 -2.754,7.71 -6.243,7.71" style="fill:none;stroke:#000;stroke-width:1px;"/><circle cx="9.25" cy="14.355" r="0.5" style="stroke:#000;stroke-width:1px;"/><path d="M10.25,9.926l1.5,-2l1,3.5" style="fill:none;stroke:#000;stroke-width:1px;"/><path d="M9,24l1,1.5l1,-1.5" style="fill:none;stroke:#000;stroke-width:1px;"/><path d="M9,24l1,1.5l1,-1.5" style="fill:none;stroke:#000;stroke-width:1px;"/><path d="M23,24l1,1.5l1,-1.5" style="fill:none;stroke:#000;stroke-width:1px;"/><path d="M19.5,24l1,1.5l1,-1.5" style="fill:none;stroke:#000;stroke-width:1px;"/><path d="M12.5,24l1,1.5l1,-1.5" style="fill:none;stroke:#000;stroke-width:1px;"/><path d="M28.292,20.093l2.416,-0.639" style="fill:none;stroke:#000;stroke-width:1px;"/><path d="M14.25,19.368l2.5,0" style="fill:none;stroke:#000;stroke-width:1px;"/><path d="M13.777,17.261l2.446,-0.522" style="fill:none;stroke:#000;stroke-width:1px;"/><path d="M18.5,16.5l2.5,-0" style="fill:none;stroke:#000;stroke-width:1px;"/><path d="M23.754,16.625l2.492,0.19" style="fill:none;stroke:#000;stroke-width:1px;"/><path d="M28.75,17.78l2.437,-0.56" style="fill:none;stroke:#000;stroke-width:1px;"/><path d="M23.749,19.201l2.495,0.145" style="fill:none;stroke:#000;stroke-width:1px;"/><path d="M19,19.184l2.5,0" style="fill:none;stroke:#000;stroke-width:1px;"/><path d="M28.75,15.466l2.5,0.068" style="fill:none;stroke:#000;stroke-width:1px;"/><path d="M23.777,13.741l2.446,0.518" style="fill:none;stroke:#000;stroke-width:1px;"/><path d="M13.544,13.996l2.491,-0.209" style="fill:none;stroke:#000;stroke-width:1px;"/><path d="M18.75,13.348l2.5,-0.068" style="fill:none;stroke:#000;stroke-width:1px;"/><path d="M28,12.641l2.394,0.718" style="fill:none;stroke:#000;stroke-width:1px;"/><path d="M27.5,9l1.986,1.519" style="fill:none;stroke:#000;stroke-width:1px;"/><path d="M19,10.011l2.5,-0.011" style="fill:none;stroke:#000;stroke-width:1px;"/><path d="M24.085,10.575l2.322,0.925" style="fill:none;stroke:#000;stroke-width:1px;"/><path d="M14.279,10.766l2.442,-0.532" style="fill:none;stroke:#000;stroke-width:1px;"/><path d="M23.634,7l2.366,0.808" style="fill:none;stroke:#000;stroke-width:1px;"/><path d="M18.757,6.5l2.5,-0" style="fill:none;stroke:#000;stroke-width:1px;"/><path d="M13.825,7.808l2.35,-0.852" style="fill:none;stroke:#000;stroke-width:1px;"/><path d="M21.75,22l2.5,0" style="fill:none;stroke:#000;stroke-width:1px;"/><path d="M26.529,22.268l2.442,-0.536" style="fill:none;stroke:#000;stroke-width:1px;"/><path d="M16.753,21.917l2.494,0.166" style="fill:none;stroke:#000;stroke-width:1px;"/><path d="M12.506,21.5l2.494,0.166" style="fill:none;stroke:#000;stroke-width:1px;"/></svg>